<?xml version="1.0" encoding="UTF-8" standalone="no"?>
<!-- Created with Inkscape (http://www.inkscape.org/) -->

<svg
   width="210mm"
   height="297mm"
   viewBox="0 0 210 297"
   version="1.1"
   id="svg5"
   inkscape:version="1.2.2 (b0a8486541, 2022-12-01)"
   sodipodi:docname="logo.svg"
   xmlns:inkscape="http://www.inkscape.org/namespaces/inkscape"
   xmlns:sodipodi="http://sodipodi.sourceforge.net/DTD/sodipodi-0.dtd"
   xmlns="http://www.w3.org/2000/svg"
   xmlns:svg="http://www.w3.org/2000/svg">
  <sodipodi:namedview
     id="namedview7"
     pagecolor="#ffffff"
     bordercolor="#666666"
     borderopacity="1.0"
     inkscape:showpageshadow="2"
     inkscape:pageopacity="0.0"
     inkscape:pagecheckerboard="0"
     inkscape:deskcolor="#d1d1d1"
     inkscape:document-units="mm"
     showgrid="false"
     inkscape:zoom="0.77593294"
     inkscape:cx="396.29713"
     inkscape:cy="562.54861"
     inkscape:window-width="939"
     inkscape:window-height="1034"
     inkscape:window-x="12"
     inkscape:window-y="12"
     inkscape:window-maximized="1"
     inkscape:current-layer="layer1" />
  <defs
     id="defs2" />
  <g
     inkscape:label="Layer 1"
     inkscape:groupmode="layer"
     id="layer1">
    <g
       aria-label="local"
       id="text985"
       style="font-size:10.5833px;line-height:1.25;fill:#d40000;stroke-width:0.264583"
       inkscape:export-filename="../../text985.svg"
       inkscape:export-xdpi="1002.26"
       inkscape:export-ydpi="1002.26">
      <path
         d="m 34.658935,103.32078 h 0.950843 v 8.04082 h -0.950843 z"
         id="path1222" />
      <path
         d="m 39.842065,106.24048 q -0.764809,0 -1.209225,0.59945 -0.444416,0.59428 -0.444416,1.63297 0,1.03869 0.439248,1.63814 0.444416,0.59427 1.214393,0.59427 0.759641,0 1.204057,-0.59944 0.444415,-0.59945 0.444415,-1.63297 0,-1.02836 -0.444415,-1.6278 -0.444416,-0.60462 -1.204057,-0.60462 z m 0,-0.80615 q 1.24023,0 1.948195,0.80615 0.707965,0.80615 0.707965,2.23242 0,1.4211 -0.707965,2.23241 -0.707965,0.80615 -1.948195,0.80615 -1.245398,0 -1.953363,-0.80615 -0.702798,-0.81131 -0.702798,-2.23241 0,-1.42627 0.702798,-2.23242 0.707965,-0.80615 1.953363,-0.80615 z"
         id="path1224" />
      <path
         d="m 48.239458,105.79607 v 0.88883 q -0.403075,-0.22221 -0.811318,-0.33073 -0.403074,-0.11369 -0.816485,-0.11369 -0.925005,0 -1.4366,0.58911 -0.511595,0.58395 -0.511595,1.64331 0,1.05936 0.511595,1.64847 0.511595,0.58394 1.4366,0.58394 0.413411,0 0.816485,-0.10852 0.408243,-0.11368 0.811318,-0.33589 v 0.87849 q -0.397907,0.18604 -0.82682,0.27906 -0.423746,0.093 -0.904335,0.093 -1.30741,0 -2.077386,-0.82165 -0.769976,-0.82165 -0.769976,-2.21691 0,-1.41593 0.775144,-2.22725 0.780311,-0.81132 2.134229,-0.81132 0.439249,0 0.857826,0.093 0.418578,0.0879 0.811318,0.26872 z"
         id="path1226" />
      <path
         d="m 52.52342,108.45223 q -1.152381,0 -1.596796,0.26355 -0.444416,0.26355 -0.444416,0.89916 0,0.50643 0.330728,0.80615 0.335896,0.29456 0.909502,0.29456 0.790647,0 1.266069,-0.5581 0.480589,-0.56328 0.480589,-1.49345 v -0.21187 z m 1.896519,-0.39274 v 3.30211 h -0.950843 v -0.87849 q -0.325561,0.52709 -0.811317,0.78031 -0.485757,0.24804 -1.188555,0.24804 -0.888831,0 -1.415929,-0.49609 -0.521931,-0.50126 -0.521931,-1.33841 0,-0.97669 0.651121,-1.47278 0.656289,-0.49609 1.953363,-0.49609 h 1.333248 v -0.093 q 0,-0.65629 -0.434081,-1.01285 -0.428913,-0.36174 -1.209224,-0.36174 -0.496093,0 -0.966347,0.11886 -0.470254,0.11886 -0.904334,0.35657 v -0.8785 q 0.52193,-0.20154 1.012855,-0.29972 0.490924,-0.10336 0.956011,-0.10336 1.255733,0 1.875848,0.65113 0.620115,0.65112 0.620115,1.97403 z"
         id="path1228" />
      <path
         d="m 56.378471,103.32078 h 0.950843 v 8.04082 h -0.950843 z"
         id="path1230" />
    </g>
    <g
       aria-label="foundation"
       id="text989"
       style="font-size:10.5833px;line-height:1.25;fill:#008000;stroke-width:0.264583">
      <path
         d="m 37.316663,113.06741 v 0.79065 h -0.909502 q -0.511595,0 -0.713132,0.2067 -0.19637,0.20671 -0.19637,0.74414 v 0.5116 h 1.565791 v 0.73897 h -1.565791 v 5.04877 h -0.956011 v -5.04877 h -0.909503 v -0.73897 h 0.909503 v -0.40308 q 0,-0.96634 0.449583,-1.40559 0.449584,-0.44442 1.426265,-0.44442 z"
         id="path1233" />
      <path
         d="m 40.355228,115.98712 q -0.764809,0 -1.209225,0.59944 -0.444416,0.59428 -0.444416,1.63297 0,1.0387 0.439249,1.63814 0.444415,0.59428 1.214392,0.59428 0.759641,0 1.204057,-0.59945 0.444416,-0.59944 0.444416,-1.63297 0,-1.02835 -0.444416,-1.6278 -0.444416,-0.60461 -1.204057,-0.60461 z m 0,-0.80615 q 1.24023,0 1.948195,0.80615 0.707965,0.80615 0.707965,2.23241 0,1.4211 -0.707965,2.23242 -0.707965,0.80615 -1.948195,0.80615 -1.245398,0 -1.953363,-0.80615 -0.702797,-0.81132 -0.702797,-2.23242 0,-1.42626 0.702797,-2.23241 0.707965,-0.80615 1.953363,-0.80615 z"
         id="path1235" />
      <path
         d="m 44.489329,118.82415 v -3.50365 h 0.950844 v 3.46747 q 0,0.82166 0.320393,1.23507 0.320392,0.40824 0.961178,0.40824 0.769976,0 1.214392,-0.49093 0.449584,-0.49092 0.449584,-1.33841 v -3.28144 h 0.950843 v 5.78774 H 48.38572 v -0.88883 q -0.346231,0.52709 -0.80615,0.78548 -0.454751,0.25321 -1.059363,0.25321 -0.997352,0 -1.514115,-0.62012 -0.516763,-0.62011 -0.516763,-1.81383 z m 2.392612,-3.64318 z"
         id="path1237" />
      <path
         d="m 56.106153,117.61492 v 3.49332 H 55.15531 v -3.46231 q 0,-0.82165 -0.320393,-1.2299 -0.320393,-0.40824 -0.961178,-0.40824 -0.769977,0 -1.214393,0.49093 -0.444416,0.49092 -0.444416,1.33841 v 3.27111 h -0.95601 v -5.78774 h 0.95601 v 0.89916 q 0.341064,-0.52193 0.800983,-0.78031 0.465086,-0.25838 1.069698,-0.25838 0.997352,0 1.508947,0.62012 0.511595,0.61494 0.511595,1.81383 z"
         id="path1239" />
      <path
         d="m 61.811214,116.19899 v -3.13158 h 0.950844 v 8.04083 h -0.950844 v -0.86816 q -0.299722,0.51676 -0.759641,0.76997 -0.454751,0.24805 -1.095537,0.24805 -1.049028,0 -1.710484,-0.83716 -0.656289,-0.83715 -0.656289,-2.20141 0,-1.36425 0.656289,-2.2014 0.661456,-0.83716 1.710484,-0.83716 0.640786,0 1.095537,0.25321 0.459919,0.24805 0.759641,0.76481 z m -3.240102,2.02054 q 0,1.04903 0.428913,1.64848 0.434081,0.59427 1.188555,0.59427 0.754473,0 1.188554,-0.59427 0.43408,-0.59945 0.43408,-1.64848 0,-1.04902 -0.43408,-1.6433 -0.434081,-0.59945 -1.188554,-0.59945 -0.754474,0 -1.188555,0.59945 -0.428913,0.59428 -0.428913,1.6433 z"
         id="path1241" />
      <path
         d="m 67.35091,118.19886 q -1.152381,0 -1.596797,0.26355 -0.444415,0.26355 -0.444415,0.89917 0,0.50643 0.330728,0.80615 0.335895,0.29455 0.909502,0.29455 0.790647,0 1.266068,-0.5581 0.48059,-0.56327 0.48059,-1.49344 v -0.21188 z m 1.896519,-0.39274 v 3.30212 h -0.950843 v -0.8785 q -0.325561,0.5271 -0.811318,0.78031 -0.485757,0.24805 -1.188554,0.24805 -0.888832,0 -1.41593,-0.49609 -0.52193,-0.50126 -0.52193,-1.33842 0,-0.97668 0.651121,-1.47277 0.656289,-0.49609 1.953363,-0.49609 h 1.333248 v -0.093 q 0,-0.65629 -0.434081,-1.01286 -0.428913,-0.36173 -1.209225,-0.36173 -0.496092,0 -0.966346,0.11886 -0.470254,0.11885 -0.904334,0.35656 v -0.87849 q 0.52193,-0.20154 1.012854,-0.29973 0.490925,-0.10335 0.956011,-0.10335 1.255734,0 1.875849,0.65112 0.620115,0.65112 0.620115,1.97403 z"
         id="path1243" />
      <path
         d="m 72.146467,113.67719 v 1.64331 h 1.95853 v 0.73897 h -1.95853 v 3.14191 q 0,0.70797 0.191202,0.90951 0.19637,0.20153 0.790647,0.20153 h 0.976681 v 0.79582 h -0.976681 q -1.100705,0 -1.519282,-0.40824 -0.418578,-0.41341 -0.418578,-1.49862 v -3.14191 h -0.69763 v -0.73897 h 0.69763 v -1.64331 z"
         id="path1245" />
      <path
         d="m 75.355563,115.3205 h 0.950844 v 5.78774 h -0.950844 z m 0,-2.25309 h 0.950844 v 1.20406 h -0.950844 z"
         id="path1247" />
      <path
         d="m 80.538694,115.98712 q -0.764809,0 -1.209225,0.59944 -0.444416,0.59428 -0.444416,1.63297 0,1.0387 0.439248,1.63814 0.444416,0.59428 1.214393,0.59428 0.759641,0 1.204057,-0.59945 0.444416,-0.59944 0.444416,-1.63297 0,-1.02835 -0.444416,-1.6278 -0.444416,-0.60461 -1.204057,-0.60461 z m 0,-0.80615 q 1.24023,0 1.948195,0.80615 0.707965,0.80615 0.707965,2.23241 0,1.4211 -0.707965,2.23242 -0.707965,0.80615 -1.948195,0.80615 -1.245398,0 -1.953363,-0.80615 -0.702798,-0.81132 -0.702798,-2.23242 0,-1.42626 0.702798,-2.23241 0.707965,-0.80615 1.953363,-0.80615 z"
         id="path1249" />
      <path
         d="m 89.582041,117.61492 v 3.49332 h -0.950844 v -3.46231 q 0,-0.82165 -0.320392,-1.2299 -0.320393,-0.40824 -0.961179,-0.40824 -0.769976,0 -1.214392,0.49093 -0.444416,0.49092 -0.444416,1.33841 v 3.27111 h -0.956011 v -5.78774 h 0.956011 v 0.89916 q 0.341063,-0.52193 0.800982,-0.78031 0.465086,-0.25838 1.069699,-0.25838 0.997352,0 1.508947,0.62012 0.511595,0.61494 0.511595,1.81383 z"
         id="path1251" />
    </g>
  </g>
</svg>
