<?xml version="1.0" encoding="UTF-8" standalone="no"?>
<svg
   width="700pt"
   height="700pt"
   version="1.1"
   viewBox="0 0 700 700"
   id="svg1635"
   sodipodi:docname="noun-wind-1030092.svg"
   xmlns:inkscape="http://www.inkscape.org/namespaces/inkscape"
   xmlns:sodipodi="http://sodipodi.sourceforge.net/DTD/sodipodi-0.dtd"
   xmlns="http://www.w3.org/2000/svg"
   xmlns:svg="http://www.w3.org/2000/svg">
  <sodipodi:namedview
     id="namedview1637"
     pagecolor="#ffffff"
     bordercolor="#666666"
     borderopacity="1.0"
     inkscape:showpageshadow="2"
     inkscape:pageopacity="0.0"
     inkscape:pagecheckerboard="0"
     inkscape:deskcolor="#d1d1d1"
     inkscape:document-units="pt"
     showgrid="false" />
  <defs
     id="defs1557" />
  <path
     d="M 383.6,341.6 H 182 c -3.3594,0 -5.6016,2.8008 -5.6016,5.6016 0,3.3594 2.2383,5.6016 5.6016,5.6016 h 201.6 c 22.961,0 41.441,18.48 41.441,42 0,22.961 -18.48,42 -41.441,42 -14,0 -25.762,-11.762 -25.762,-25.762 0,-4.4805 1.1211,-8.9609 3.3594,-12.879 1.6797,-2.8008 0.55859,-6.1602 -2.2383,-7.8398 -2.8008,-1.6797 -6.1602,-0.55859 -7.8398,2.2383 -3.3594,5.6016 -5.0391,12.32 -5.0391,18.48 0,20.719 16.801,36.961 36.961,36.961 29.121,0 52.641,-24.078 52.641,-53.199 0.55469,-29.125 -22.965,-53.203 -52.082,-53.203 z"
     id="path1559" />
  <path
     d="m 470.96,213.36 c -20.16,0 -36.961,16.801 -36.961,36.961 0,6.7188 1.6797,12.879 5.0391,18.48 1.6797,2.8008 5.0391,3.3594 7.8398,2.2383 2.8008,-1.6797 3.3594,-5.0391 2.2383,-7.8398 -2.2383,-3.9219 -3.3594,-8.3984 -3.3594,-12.879 0,-14.559 11.762,-25.762 25.762,-25.762 22.961,0 41.441,18.48 41.441,42 0,22.961 -18.48,42 -41.441,42 h -218.4 c -3.3594,0 -5.6016,2.8008 -5.6016,5.6016 0,3.3594 2.2383,5.6016 5.6016,5.6016 h 218.4 c 29.121,0 52.641,-24.078 52.641,-53.199 0,-29.121 -24.082,-53.203 -53.199,-53.203 z"
     id="path1561" />
  <path
     d="m 182,218.4 h 201.6 c 29.121,0 52.641,-24.078 52.641,-53.199 -0.004,-29.121 -23.523,-53.199 -52.641,-53.199 -20.16,0 -36.961,16.801 -36.961,36.961 0,6.7188 1.6797,12.879 5.0391,18.48 1.6797,2.8008 5.0391,3.3594 7.8398,2.2383 2.8008,-1.6797 3.3594,-5.0391 2.2383,-7.8398 -2.2383,-3.9219 -3.3594,-8.3984 -3.3594,-12.879 0,-14.559 11.762,-25.762 25.762,-25.762 22.961,0 41.441,18.48 41.441,42 0,22.961 -18.48,42 -41.441,42 h -202.16 c -3.3594,0 -5.6016,2.8008 -5.6016,5.6016 0,2.8008 2.2422,5.5977 5.6016,5.5977 z"
     id="path1563" />
  <path
     d="m 182,285.6 h 220.08 c 3.3594,0 5.6016,-2.8008 5.6016,-5.6016 0,-2.8008 -2.2383,-5.6016 -5.6016,-5.6016 H 182 c -3.3594,0 -5.6016,2.8008 -5.6016,5.6016 0,2.8008 2.2422,5.6016 5.6016,5.6016 z"
     id="path1565" />
  <path
     d="m 252.56,240.8 c -3.3594,0 -5.6016,2.8008 -5.6016,5.6016 0,3.3594 2.2383,5.6016 5.6016,5.6016 h 108.08 c 3.3594,0 5.6016,-2.8008 5.6016,-5.6016 0,-3.3594 -2.2383,-5.6016 -5.6016,-5.6016 z"
     id="path1567" />
</svg>
